<svg version="1.1" id="Layer_1" xmlns="http://www.w3.org/2000/svg" xmlns:xlink="http://www.w3.org/1999/xlink" x="0px" y="0px" viewBox="0 0 191.3 53.7" style="enable-background:new 0 0 191.3 53.7;" xml:space="preserve">
 <style type="text/css">
  .st0{fill:#FFFFFF;}
 </style>
 <g>
  <g>
   <path class="st0" d="M32.1,0.1L0,15l8,30.5l6.1-0.8l-1.7-19.2l2-0.9l3.5,19.6L28.3,43l-1.9-21.1l2-0.9l3.8,21.5l10.5-1.3l-2-23.2
			l2-0.9l4.2,23.6l10.4-1.3v-33L32.1,0.1z M32.9,46.3l0.5,3l23.9,4v-10L32.9,46.3L32.9,46.3z M79.9,40.1v4.1h5.1
			c0,0.8-0.2,1.6-0.6,2.4c-0.4,0.7-1.1,1.3-1.8,1.7c-0.9,0.4-1.9,0.6-2.9,0.6c-1.1,0-2.3-0.3-3.2-0.9c-0.9-0.7-1.7-1.6-2.1-2.6
			c-0.5-1.3-0.8-2.8-0.7-4.2c0-1.4,0.2-2.8,0.8-4.2c0.4-1.1,1.2-2,2.1-2.6c0.9-0.6,2.1-0.9,3.2-0.9c0.6,0,1.2,0.1,1.7,0.2
			c0.5,0.2,1,0.4,1.4,0.7c0.4,0.3,0.8,0.7,1,1.1c0.3,0.4,0.5,0.9,0.6,1.4H90c-0.2-1.2-0.5-2.3-1.1-3.3c-0.6-1-1.4-1.9-2.3-2.6
			c-1-0.8-2.1-1.3-3.2-1.7c-1.3-0.4-2.6-0.6-3.9-0.6c-1.6,0-3.1,0.3-4.6,0.8c-1.4,0.6-2.6,1.4-3.7,2.5c-1.1,1.1-1.9,2.5-2.5,4
			c-0.6,1.7-0.9,3.5-0.9,5.3c0,2.6,0.5,4.8,1.5,6.7c0.9,1.8,2.4,3.3,4.1,4.3c3.6,1.9,8,2,11.7,0.3c1.6-0.8,2.9-2,3.8-3.6
			c0.9-1.6,1.4-3.4,1.4-5.6v-3.2L79.9,40.1z M149.8,53.3V28.8h16.8v4.5h-11.3v5.5h9.1v4.5h-9.1v5.5h11.3v4.5H149.8z M183,36
			c0-0.9-0.5-1.6-1.1-2.2c-0.7-0.5-1.6-0.8-2.8-0.8c-0.7,0-1.4,0.1-2,0.3c-0.5,0.2-0.9,0.5-1.2,0.9c-0.3,0.4-0.4,0.8-0.4,1.3
			c0,0.4,0.1,0.7,0.3,1.1c0.2,0.3,0.5,0.6,0.8,0.8c0.4,0.2,0.8,0.4,1.2,0.6c0.5,0.2,1,0.3,1.5,0.4l2.2,0.5c1.1,0.2,2.1,0.6,3.1,1
			c0.9,0.4,1.7,0.9,2.3,1.5c0.6,0.6,1.1,1.3,1.5,2.1c0.4,0.9,0.5,1.8,0.5,2.7c0,1.4-0.4,2.8-1.1,3.9c-0.8,1.1-2,2-3.3,2.6
			c-1.7,0.6-3.4,0.9-5.2,0.9c-1.8,0-3.6-0.3-5.3-0.9c-1.4-0.6-2.6-1.5-3.5-2.8c-0.8-1.2-1.3-2.8-1.3-4.6h5.3c0,1.5,0.9,2.7,2.3,3.2
			c0.8,0.3,1.6,0.4,2.4,0.4c0.7,0,1.5-0.1,2.2-0.4c0.6-0.2,1-0.5,1.4-1c0.3-0.4,0.5-0.9,0.5-1.5c0-0.5-0.2-0.9-0.5-1.3
			c-0.4-0.4-0.8-0.7-1.3-0.9c-0.7-0.3-1.5-0.5-2.2-0.7l-2.6-0.6c-2.1-0.5-3.7-1.3-5-2.4c-1.2-1.1-1.8-2.5-1.8-4.4
			c0-1.4,0.4-2.8,1.2-3.9c0.9-1.2,2-2.1,3.4-2.6c1.5-0.7,3.2-1,4.9-1c1.7,0,3.3,0.3,4.9,1c1.3,0.6,2.4,1.5,3.2,2.6
			c0.8,1.2,1.2,2.5,1.2,3.9L183,36z M145.9,53.3h-5.5V34.7l-0.6,0l-5.5,18.7h-5.5l-5.4-18.7l-0.7,0v18.7h-5.5V28.8h9.3l4.7,16.5h0.6
			l4.7-16.5h9.3V53.3z M108.6,53.3h6l-8.2-24.5h-7.5l-8.3,24.5h6l1.6-5.4h8.9L108.6,53.3z M99.3,43.7l2.7-9h1l2.7,9H99.3z
			 M189.9,31.4c-0.5,0-1-0.3-1.2-0.8c-0.1-0.3-0.1-0.7,0-1c0.1-0.2,0.2-0.3,0.3-0.4c0.1-0.1,0.3-0.2,0.4-0.3c0.3-0.1,0.7-0.1,1,0
			c0.2,0.1,0.3,0.2,0.4,0.3c0.1,0.1,0.2,0.3,0.3,0.4c0.1,0.3,0.1,0.7,0,1c-0.1,0.2-0.2,0.3-0.3,0.4c-0.1,0.1-0.3,0.2-0.4,0.3
			C190.3,31.4,190.1,31.4,189.9,31.4L189.9,31.4z M189.9,31c0.2,0,0.3,0,0.5-0.1c0.1-0.1,0.3-0.2,0.3-0.3c0.2-0.3,0.2-0.7,0-0.9
			c-0.1-0.1-0.2-0.2-0.3-0.3c-0.3-0.2-0.7-0.2-1,0c-0.1,0.1-0.2,0.2-0.3,0.3c-0.2,0.3-0.2,0.7,0,0.9c0.1,0.1,0.2,0.2,0.3,0.3
			C189.6,31,189.8,31,189.9,31L189.9,31z M189.5,30.7v-1.2h0.6c0.1,0,0.2,0,0.2,0c0.1,0,0.1,0.1,0.2,0.1c0,0.1,0.1,0.1,0.1,0.2
			c0,0.1,0,0.2-0.1,0.2c0,0.1-0.1,0.1-0.2,0.1c-0.1,0-0.2,0-0.2,0h-0.4V30h0.3c0,0,0.1,0,0.1,0c0,0,0-0.1,0-0.1c0,0,0-0.1,0-0.1
			c0,0-0.1,0-0.1,0h-0.2v1H189.5z M190.3,30.1l0.3,0.6h-0.4l-0.2-0.6H190.3z M91.9,0.3h5.6v24.5h-5.6V0.3z M123.8,12.6
			c0,2.7-0.5,5-1.5,6.8c-0.9,1.8-2.4,3.3-4.2,4.3c-3.7,2-8.1,2-11.8,0c-1.8-1-3.2-2.5-4.2-4.3c-1-1.9-1.5-4.2-1.5-6.8
			c0-2.7,0.5-5,1.5-6.9c1-1.8,2.4-3.3,4.1-4.3c3.7-2,8.1-2,11.8,0c1.8,1,3.2,2.5,4.2,4.3C123.2,7.6,123.7,9.9,123.8,12.6
			 M118.1,12.6c0-1.5-0.2-2.9-0.7-4.2c-0.4-1.1-1.1-2-2.1-2.6c-1.9-1.2-4.4-1.2-6.3,0c-0.9,0.6-1.7,1.5-2.1,2.6c-1,2.7-1,5.7,0,8.4
			c0.4,1.1,1.1,2,2.1,2.6c1.9,1.2,4.4,1.2,6.3,0c0.9-0.6,1.6-1.6,2.1-2.6C117.9,15.5,118.1,14.1,118.1,12.6 M80.2,16.3l2.9,8.6h6.1
			L86,15.7h-4.3l-0.3-0.8c0.8-0.2,2.2-0.4,3.5-1.3c1.8-1.2,2.8-3.2,2.8-5.3c0-1.5-0.3-2.9-1.1-4.1c-0.7-1.2-1.8-2.2-3-2.8
			c-1.5-0.7-3.1-1-4.8-1H69v24.5h5.5v-8.6H80.2z M80.1,11.2c-0.8,0.3-1.6,0.4-2.4,0.4h-3.2V4.8h3.2c0.8,0,1.6,0.1,2.4,0.4
			c0.6,0.2,1.1,0.7,1.4,1.2C81.9,7,82,7.6,82,8.3c0,0.6-0.1,1.3-0.5,1.8C81.2,10.6,80.7,11,80.1,11.2 M124.3,0.3v4.5h9.5l0.3,0.8
			c-0.8,0.2-2.2,0.4-3.4,1.2v18h5.5v-20h6.4V0.3L124.3,0.3z M124.3,0.3">
   </path>
  </g>
 </g>
</svg>